<?xml version="1.0" standalone="no"?>
<!DOCTYPE svg PUBLIC "-//W3C//DTD SVG 20010904//EN"
 "http://www.w3.org/TR/2001/REC-SVG-20010904/DTD/svg10.dtd">
<svg version="1.0" xmlns="http://www.w3.org/2000/svg"
 width="1280.000000pt" height="1280.000000pt" viewBox="0 0 1280.000000 1280.000000"
 preserveAspectRatio="xMidYMid meet">
<g transform="translate(0.000000,1280.000000) scale(0.100000,-0.100000)"
fill="#000000" stroke="none">
<path d="M7183 10339 c-162 -7 -325 -23 -357 -35 -8 -3 -17 -12 -20 -21 -7
-16 -3 -20 144 -140 52 -43 204 -184 337 -314 272 -266 303 -293 332 -284 11
3 77 63 148 133 70 70 193 183 273 252 200 172 259 229 281 272 19 37 25 103
11 124 -9 14 -896 24 -1149 13z"/>
<path d="M4520 10319 c-239 -16 -306 -33 -284 -72 5 -8 36 -35 69 -60 74 -55
194 -166 493 -454 127 -122 239 -226 250 -232 44 -23 163 68 402 308 303 305
416 461 368 509 -14 14 -1089 15 -1298 1z"/>
<path d="M8542 9953 c-363 -368 -595 -616 -618 -659 l-18 -32 53 -59 c134
-147 817 -801 1014 -969 174 -150 225 -180 331 -199 131 -22 407 -19 646 7
153 17 264 22 520 23 316 2 325 3 328 22 3 23 -114 172 -392 495 -514 599
-1507 1668 -1550 1668 -15 1 -110 -90 -314 -297z"/>
<path d="M6273 10234 c-7 -3 -113 -115 -236 -249 -124 -134 -280 -292 -348
-351 -337 -295 -398 -390 -303 -471 21 -19 86 -68 144 -108 65 -44 208 -167
370 -316 451 -415 501 -459 519 -459 10 0 53 39 97 87 43 48 237 248 430 444
332 337 454 468 454 489 0 5 -42 42 -92 83 -98 78 -392 353 -429 400 -36 47
-248 237 -349 311 -78 59 -228 148 -241 145 -2 0 -9 -3 -16 -5z"/>
<path d="M3710 10097 c-158 -195 -392 -456 -1291 -1442 -296 -325 -371 -414
-409 -489 -35 -69 -41 -140 -12 -154 9 -5 383 -7 847 -4 l830 4 125 132 c68
72 273 282 455 466 384 388 565 593 565 637 0 21 -147 169 -445 448 -379 355
-539 495 -568 495 -16 0 -43 -27 -97 -93z"/>
<path d="M7403 8818 c-213 -230 -302 -320 -490 -498 -123 -117 -133 -129 -148
-183 -14 -49 -15 -61 -3 -78 13 -21 20 -21 733 -20 677 2 915 8 1080 32 93 13
111 40 53 80 -94 66 -208 168 -448 404 -146 143 -304 291 -352 328 -101 79
-194 137 -219 137 -10 0 -101 -90 -206 -202z"/>
<path d="M4994 8918 c-33 -35 -86 -94 -119 -133 -134 -157 -272 -299 -414
-424 -82 -73 -161 -149 -175 -169 -34 -50 -52 -123 -37 -151 l12 -21 642 1
c353 1 755 5 892 8 l250 6 3 25 c5 50 -263 348 -498 554 -188 165 -453 366
-482 366 -8 0 -41 -28 -74 -62z"/>
<path d="M9252 7720 c-585 -4 -1067 -11 -1072 -16 -10 -10 -228 -772 -394
-1379 -291 -1067 -528 -2019 -679 -2735 -80 -376 -77 -357 -62 -377 25 -34 -1
-64 441 502 1076 1381 2878 3620 3024 3760 78 74 110 129 110 187 0 37 -4 50
-19 58 -11 6 -77 9 -153 8 -73 -1 -611 -5 -1196 -8z"/>
<path d="M6016 7700 c-1018 -7 -1070 -8 -1083 -26 -7 -10 -13 -36 -13 -58 0
-40 184 -710 701 -2561 570 -2037 667 -2362 756 -2538 21 -42 28 -48 51 -45
26 3 28 8 75 188 110 431 553 2139 912 3515 212 814 385 1490 385 1501 0 39
191 36 -1784 24z"/>
<path d="M2950 7680 c-448 -3 -821 -9 -827 -13 -7 -5 -13 -17 -13 -27 0 -27
796 -1009 1690 -2085 415 -499 883 -1067 1303 -1581 409 -501 511 -610 588
-629 30 -8 63 18 56 44 -3 9 -43 149 -90 311 -100 348 -222 787 -553 2000
-368 1346 -535 1943 -550 1968 l-14 22 -388 -2 c-213 -2 -754 -5 -1202 -8z"/>
</g>
</svg>
